<svg class="variation-svg fade-enter-done" viewBox="54.27585144042969 63.562218457092285 466.44830322265625 408.7877800170288" xmlns="http://www.w3.org/2000/svg" xmlns:xlink="http://www.w3.org/1999/xlink" style="transform: scale(1);"><image height="101" width="101" y="154.4800033569336" x="237" preserveAspectRatio="xMinYMin" transform="rotate(45 287.5 204.9800033569336)" href="https://fiverr-res.cloudinary.com/image/upload/f_png,q_auto,t_makers_project_variation_preview/v1/secured-attachments/makers_project_variation/preview_file/e4bc4d2c1f852c8543fba0cc117c7d87-1619143396/5fbe96db6d7bf30014492b73.svg?__cld_token__=exp=1657048309~hmac=9f1294bb6a2765f34cb9d2ce6e762b264be548ebce22bc3d83a27bb7fb0e7ec9" xlink:href="https://fiverr-res.cloudinary.com/image/upload/f_png,q_auto,t_makers_project_variation_preview/v1/secured-attachments/makers_project_variation/preview_file/e4bc4d2c1f852c8543fba0cc117c7d87-1619143396/5fbe96db6d7bf30014492b73.svg?__cld_token__=exp=1657048309~hmac=9f1294bb6a2765f34cb9d2ce6e762b264be548ebce22bc3d83a27bb7fb0e7ec9" style="position: absolute;"></image><g><svg data-layer-type="text" y="393.7599983215332" viewBox="1.2599999904632568 3.119999885559082 209.2100067138672 8.59000015258789" x="182.8949983215332" height="8.59000015258789" width="209.2100067138672" style="position: absolute;"><g data-horizontal-grow="center" style="fill: rgb(54, 64, 60); font-size: 12px; font-weight: 500; font-style: normal; font-family: Montserrat; dominant-baseline: hanging; text-transform: uppercase; fill-opacity: 1;"><path d="M2.46 11.62L1.26 11.62L1.26 3.22L4.54 3.22Q5.64 3.22 6.42 3.56Q7.20 3.91 7.62 4.57Q8.04 5.23 8.04 6.14L8.04 6.14Q8.04 7.06 7.62 7.71Q7.20 8.36 6.42 8.72Q5.64 9.07 4.54 9.07L4.54 9.07L1.92 9.07L2.46 8.51L2.46 11.62ZM2.46 3.66L2.46 8.63L1.92 8.03L4.50 8.03Q5.65 8.03 6.25 7.54Q6.84 7.04 6.84 6.14L6.84 6.14Q6.84 5.24 6.25 4.75Q5.65 4.26 4.50 4.26L4.50 4.26L1.92 4.26L2.46 3.66ZM15.55 11.62L9.80 11.62L9.80 3.22L11.00 3.22L11.00 10.57L15.55 10.57L15.55 11.62ZM16.90 11.62L15.66 11.62L19.46 3.22L20.65 3.22L24.47 11.62L23.21 11.62L19.81 3.89L20.29 3.89L16.90 11.62ZM22.68 9.52L17.28 9.52L17.60 8.56L22.33 8.56L22.68 9.52ZM26.92 11.62L25.72 11.62L25.72 3.22L26.70 3.22L32.26 10.12L31.74 10.12L31.74 3.22L32.94 3.22L32.94 11.62L31.96 11.62L26.40 4.72L26.92 4.72L26.92 11.62ZM36.66 11.62L35.46 11.62L35.46 3.22L36.44 3.22L42 10.12L41.48 10.12L41.48 3.22L42.68 3.22L42.68 11.62L41.70 11.62L36.14 4.72L36.66 4.72L36.66 11.62ZM46.40 11.62L45.20 11.62L45.20 3.22L46.40 3.22L46.40 11.62ZM50.12 11.62L48.92 11.62L48.92 3.22L49.91 3.22L55.46 10.12L54.95 10.12L54.95 3.22L56.15 3.22L56.15 11.62L55.16 11.62L49.61 4.72L50.12 4.72L50.12 11.62ZM62.46 11.71L62.46 11.71Q61.49 11.71 60.67 11.39Q59.86 11.08 59.26 10.49Q58.66 9.91 58.32 9.13Q57.98 8.35 57.98 7.42L57.98 7.42Q57.98 6.48 58.32 5.70Q58.66 4.92 59.26 4.34Q59.87 3.76 60.68 3.44Q61.50 3.12 62.48 3.12L62.48 3.12Q63.48 3.12 64.31 3.44Q65.14 3.77 65.71 4.42L65.71 4.42L64.97 5.16Q64.45 4.66 63.85 4.42Q63.24 4.19 62.53 4.19L62.53 4.19Q61.81 4.19 61.19 4.43Q60.58 4.67 60.13 5.10Q59.68 5.53 59.43 6.13Q59.18 6.72 59.18 7.42L59.18 7.42Q59.18 8.10 59.43 8.69Q59.68 9.29 60.13 9.73Q60.58 10.16 61.19 10.40Q61.80 10.64 62.52 10.64L62.52 10.64Q63.19 10.64 63.81 10.43Q64.43 10.22 64.96 9.73L64.96 9.73L65.64 10.64Q65.02 11.17 64.18 11.44Q63.35 11.71 62.46 11.71ZM65.64 10.64L64.49 10.49L64.49 7.37L65.64 7.37L65.64 10.64ZM72.36 11.62L71.16 11.62L71.16 3.22L72.36 3.22L72.36 11.62ZM77.33 11.71L77.33 11.71Q76.37 11.71 75.49 11.42Q74.62 11.12 74.11 10.66L74.11 10.66L74.56 9.72Q75.04 10.14 75.78 10.42Q76.52 10.69 77.33 10.69L77.33 10.69Q78.06 10.69 78.52 10.52Q78.97 10.36 79.19 10.06Q79.40 9.77 79.40 9.40L79.40 9.40Q79.40 8.96 79.12 8.70Q78.84 8.44 78.39 8.27Q77.94 8.11 77.40 7.99Q76.86 7.87 76.31 7.71Q75.77 7.55 75.32 7.30Q74.87 7.04 74.59 6.62Q74.32 6.19 74.32 5.52L74.32 5.52Q74.32 4.87 74.66 4.33Q75.00 3.78 75.71 3.45Q76.43 3.12 77.53 3.12L77.53 3.12Q78.26 3.12 78.98 3.31Q79.70 3.50 80.23 3.86L80.23 3.86L79.84 4.82Q79.30 4.46 78.70 4.30Q78.10 4.14 77.53 4.14L77.53 4.14Q76.82 4.14 76.37 4.32Q75.91 4.50 75.70 4.80Q75.49 5.10 75.49 5.47L75.49 5.47Q75.49 5.92 75.77 6.18Q76.06 6.44 76.51 6.60Q76.96 6.76 77.50 6.88Q78.04 7.01 78.58 7.16Q79.13 7.32 79.58 7.57Q80.03 7.82 80.30 8.24Q80.58 8.66 80.58 9.32L80.58 9.32Q80.58 9.96 80.23 10.51Q79.88 11.05 79.16 11.38Q78.43 11.71 77.33 11.71ZM85.52 11.62L84.29 11.62L88.09 3.22L89.28 3.22L93.10 11.62L91.84 11.62L88.44 3.89L88.92 3.89L85.52 11.62ZM91.31 9.52L85.91 9.52L86.23 8.56L90.96 8.56L91.31 9.52ZM100.09 11.62L94.34 11.62L94.34 3.22L95.54 3.22L95.54 10.57L100.09 10.57L100.09 11.62ZM102.62 11.62L101.47 11.62L101.47 3.22L102.46 3.22L106.22 9.56L105.70 9.56L109.42 3.22L110.40 3.22L110.41 11.62L109.26 11.62L109.25 5.03L109.52 5.03L106.21 10.60L105.66 10.60L102.32 5.03L102.62 5.03L102.62 11.62ZM116.72 11.71L116.72 11.71Q115.76 11.71 114.94 11.39Q114.12 11.06 113.52 10.48Q112.92 9.90 112.58 9.12Q112.25 8.34 112.25 7.42L112.25 7.42Q112.25 6.49 112.58 5.71Q112.92 4.93 113.52 4.35Q114.12 3.77 114.94 3.44Q115.75 3.12 116.72 3.12L116.72 3.12Q117.68 3.12 118.49 3.44Q119.30 3.76 119.91 4.34Q120.52 4.92 120.85 5.70Q121.18 6.48 121.18 7.42L121.18 7.42Q121.18 8.35 120.85 9.13Q120.52 9.91 119.91 10.49Q119.30 11.08 118.49 11.39Q117.68 11.71 116.72 11.71ZM116.72 10.64L116.72 10.64Q117.42 10.64 118.01 10.40Q118.61 10.16 119.05 9.73Q119.48 9.29 119.73 8.70Q119.98 8.11 119.98 7.42L119.98 7.42Q119.98 6.72 119.73 6.13Q119.48 5.54 119.05 5.11Q118.61 4.67 118.01 4.43Q117.42 4.19 116.72 4.19L116.72 4.19Q116.02 4.19 115.42 4.43Q114.83 4.67 114.38 5.11Q113.94 5.54 113.69 6.13Q113.45 6.72 113.45 7.42L113.45 7.42Q113.45 8.11 113.69 8.70Q113.94 9.29 114.38 9.73Q114.83 10.16 115.42 10.40Q116.02 10.64 116.72 10.64ZM125.46 11.71L125.46 11.71Q124.50 11.71 123.62 11.42Q122.75 11.12 122.24 10.66L122.24 10.66L122.69 9.72Q123.17 10.14 123.91 10.42Q124.66 10.69 125.46 10.69L125.46 10.69Q126.19 10.69 126.65 10.52Q127.10 10.36 127.32 10.06Q127.54 9.77 127.54 9.40L127.54 9.40Q127.54 8.96 127.25 8.70Q126.97 8.44 126.52 8.27Q126.07 8.11 125.53 7.99Q124.99 7.87 124.45 7.71Q123.90 7.55 123.45 7.30Q123 7.04 122.72 6.62Q122.45 6.19 122.45 5.52L122.45 5.52Q122.45 4.87 122.79 4.33Q123.13 3.78 123.85 3.45Q124.56 3.12 125.66 3.12L125.66 3.12Q126.40 3.12 127.12 3.31Q127.84 3.50 128.36 3.86L128.36 3.86L127.97 4.82Q127.43 4.46 126.83 4.30Q126.23 4.14 125.66 4.14L125.66 4.14Q124.96 4.14 124.50 4.32Q124.04 4.50 123.83 4.80Q123.62 5.10 123.62 5.47L123.62 5.47Q123.62 5.92 123.91 6.18Q124.19 6.44 124.64 6.60Q125.09 6.76 125.63 6.88Q126.17 7.01 126.71 7.16Q127.26 7.32 127.71 7.57Q128.16 7.82 128.44 8.24Q128.71 8.66 128.71 9.32L128.71 9.32Q128.71 9.96 128.36 10.51Q128.02 11.05 127.29 11.38Q126.56 11.71 125.46 11.71ZM133.20 11.62L132.01 11.62L132.01 4.26L129.13 4.26L129.13 3.22L136.08 3.22L136.08 4.26L133.20 4.26L133.20 11.62ZM141.71 7.86L141.71 6.84L146.03 6.84L146.03 7.86L141.71 7.86ZM141.82 4.26L141.82 10.57L146.71 10.57L146.71 11.62L140.62 11.62L140.62 3.22L146.54 3.22L146.54 4.26L141.82 4.26ZM148.84 11.62L147.46 11.62L150.95 6.85L150.95 7.78L147.65 3.22L149.02 3.22L151.63 6.80L151.09 6.82L153.70 3.22L155.00 3.22L151.73 7.70L151.73 6.84L155.22 11.62L153.84 11.62L151.06 7.79L151.58 7.79L148.84 11.62ZM157.45 7.86L157.45 6.84L161.77 6.84L161.77 7.86L157.45 7.86ZM157.56 4.26L157.56 10.57L162.46 10.57L162.46 11.62L156.36 11.62L156.36 3.22L162.29 3.22L162.29 4.26L157.56 4.26ZM168.14 11.71L168.14 11.71Q167.18 11.71 166.37 11.39Q165.56 11.08 164.97 10.49Q164.38 9.91 164.04 9.13Q163.70 8.35 163.70 7.42L163.70 7.42Q163.70 6.48 164.04 5.70Q164.38 4.92 164.98 4.34Q165.58 3.76 166.39 3.44Q167.20 3.12 168.16 3.12L168.16 3.12Q169.13 3.12 169.95 3.45Q170.77 3.78 171.35 4.43L171.35 4.43L170.57 5.18Q170.09 4.68 169.49 4.43Q168.89 4.19 168.20 4.19L168.20 4.19Q167.50 4.19 166.89 4.43Q166.28 4.67 165.84 5.10Q165.40 5.53 165.15 6.13Q164.90 6.72 164.90 7.42L164.90 7.42Q164.90 8.11 165.15 8.71Q165.40 9.30 165.84 9.73Q166.28 10.16 166.89 10.40Q167.50 10.64 168.20 10.64L168.20 10.64Q168.89 10.64 169.49 10.40Q170.09 10.15 170.57 9.64L170.57 9.64L171.35 10.39Q170.77 11.04 169.95 11.38Q169.13 11.71 168.14 11.71ZM176.54 11.71L176.54 11.71Q174.89 11.71 173.94 10.76Q172.99 9.82 172.99 7.99L172.99 7.99L172.99 3.22L174.19 3.22L174.19 7.94Q174.19 9.35 174.81 10.00Q175.43 10.64 176.56 10.64L176.56 10.64Q177.70 10.64 178.31 10.00Q178.93 9.35 178.93 7.94L178.93 7.94L178.93 3.22L180.10 3.22L180.10 7.99Q180.10 9.82 179.15 10.76Q178.21 11.71 176.54 11.71ZM185.26 11.62L184.07 11.62L184.07 4.26L181.19 4.26L181.19 3.22L188.14 3.22L188.14 4.26L185.26 4.26L185.26 11.62ZM190.64 11.62L189.44 11.62L189.44 3.22L190.64 3.22L190.64 11.62ZM196.96 11.71L196.96 11.71Q196.00 11.71 195.17 11.39Q194.35 11.06 193.75 10.48Q193.15 9.90 192.82 9.12Q192.48 8.34 192.48 7.42L192.48 7.42Q192.48 6.49 192.82 5.71Q193.15 4.93 193.75 4.35Q194.35 3.77 195.17 3.44Q195.98 3.12 196.96 3.12L196.96 3.12Q197.92 3.12 198.73 3.44Q199.54 3.76 200.14 4.34Q200.75 4.92 201.08 5.70Q201.41 6.48 201.41 7.42L201.41 7.42Q201.41 8.35 201.08 9.13Q200.75 9.91 200.14 10.49Q199.54 11.08 198.73 11.39Q197.92 11.71 196.96 11.71ZM196.96 10.64L196.96 10.64Q197.65 10.64 198.25 10.40Q198.84 10.16 199.28 9.73Q199.72 9.29 199.96 8.70Q200.21 8.11 200.21 7.42L200.21 7.42Q200.21 6.72 199.96 6.13Q199.72 5.54 199.28 5.11Q198.84 4.67 198.25 4.43Q197.65 4.19 196.96 4.19L196.96 4.19Q196.25 4.19 195.65 4.43Q195.06 4.67 194.62 5.11Q194.17 5.54 193.93 6.13Q193.68 6.72 193.68 7.42L193.68 7.42Q193.68 8.11 193.93 8.70Q194.17 9.29 194.62 9.73Q195.06 10.16 195.65 10.40Q196.25 10.64 196.96 10.64ZM204.44 11.62L203.24 11.62L203.24 3.22L204.23 3.22L209.78 10.12L209.27 10.12L209.27 3.22L210.47 3.22L210.47 11.62L209.48 11.62L203.93 4.72L204.44 4.72L204.44 11.62Z" transform="translate(0, 0)"></path></g></svg></g><g><svg data-layer-type="text" y="313.2400016784668" viewBox="1.9500000476837158 21.31999969482422 326.44830322265625 57.849998474121094" x="124.27585144042969" height="57.849998474121094" width="326.44830322265625" style="position: absolute;"><g data-horizontal-grow="center" style="fill: rgb(54, 64, 60); font-size: 65px; font-weight: 400; font-style: normal; font-family: &quot;Rozha One&quot;; dominant-baseline: hanging; text-transform: none; fill-opacity: 1;"><path d="M49.01 28.47L49.01 29.77L45.76 29.77L45.76 63.57L49.01 63.57L49.01 64.87L32.76 64.87L32.76 63.57L36.01 63.57L36.01 32.18L23.14 65.52L21.64 65.52L7.21 31.27L7.21 63.57L12.42 63.57L12.42 64.87L2.02 64.87L2.02 63.57L5.92 63.57L5.92 29.77L1.95 29.77L1.95 28.47L16.45 28.47L26.59 52.85L36.01 28.47L49.01 28.47ZM67.34 72.09Q65.59 75.86 63.64 77.51Q61.69 79.17 58.44 79.17Q55.19 79.17 53.37 77.77Q51.55 76.38 51.55 74.07Q51.55 71.76 52.88 70.40Q54.21 69.03 56.09 69.03Q57.98 69.03 59.28 69.75Q60.58 70.46 61.10 71.31L61.10 71.31Q62.53 73.58 63.80 73.58Q65.06 73.58 66.04 71.37L66.04 71.37L68.77 64.94L53.56 36.27L50.96 36.27L50.96 34.97L68.44 34.97L68.44 36.27L65.20 36.27L73.91 53.43L81.38 36.27L76.18 36.27L76.18 34.97L86.84 34.97L86.84 36.27L82.94 36.27L67.34 72.09ZM103.09 29.77L103.09 29.77L103.09 50.96Q108.42 50.96 110.37 48.65Q112.32 46.34 112.32 40.56Q112.32 34.78 110.37 32.27Q108.42 29.77 103.09 29.77ZM103.09 63.57L106.34 63.57L106.34 64.87L90.09 64.87L90.09 63.57L93.34 63.57L93.34 29.77L90.09 29.77L90.09 28.47L103.03 28.47Q122.14 27.56 122.14 40.76L122.14 40.76Q122.14 46.61 117.33 49.66Q112.52 52.72 103.09 52.26L103.09 52.26L103.09 63.57ZM139.69 21.32L139.69 63.57L142.94 63.57L142.94 64.87L126.69 64.87L126.69 63.57L129.94 63.57L129.94 22.62L126.69 22.62L126.69 21.32L139.69 21.32ZM179.01 63.57Q178.36 64.22 176.54 64.71Q174.72 65.20 172.32 65.20L172.32 65.20Q166.99 65.20 165.62 62.01L165.62 62.01Q162.37 65.39 155.68 65.39L155.68 65.39Q152.10 65.39 149.79 63.73Q147.49 62.08 147.49 58.83L147.49 58.83Q147.49 54.47 150.87 52.10Q154.25 49.73 162.70 48.75L162.70 48.75L165.30 48.43L165.30 45.24Q165.30 39.59 164.45 37.64Q163.61 35.69 161.10 35.69Q158.60 35.69 157.89 36.37Q157.17 37.05 157.37 37.93Q157.56 38.81 158.02 40.23Q158.47 41.67 158.47 42.51L158.47 42.51Q158.47 44.53 157.07 45.92Q155.68 47.32 153.69 47.32Q151.71 47.32 150.28 45.92Q148.85 44.53 148.85 42.51L148.85 42.51Q148.85 39.20 152.26 36.82Q155.68 34.45 162.47 34.45Q169.26 34.45 172.15 37.12Q175.05 39.78 175.05 46.54L175.05 46.54L175.05 58.24Q175.05 61.69 175.89 62.56Q176.74 63.44 179.01 62.92L179.01 62.92L179.01 63.57ZM156.52 57.53Q156.85 60.00 158.34 61.33Q159.84 62.66 161.82 62.66Q163.80 62.66 165.30 60.71L165.30 60.71L165.30 49.66L162.96 49.99Q159.97 50.38 158.11 52.26Q156.26 54.15 156.52 57.53L156.52 57.53ZM217.04 46.80L217.04 63.57L220.29 63.57L220.29 64.87L204.04 64.87L204.04 63.57L207.29 63.57L207.29 45.37Q207.29 40.76 205.92 38.81Q204.56 36.86 201.83 36.86L201.83 36.86Q198.12 36.86 195.91 40.76L195.91 40.76L195.91 63.57L199.16 63.57L199.16 64.87L182.91 64.87L182.91 63.57L186.16 63.57L186.16 36.27L182.91 36.27L182.91 34.97L195.91 34.97L195.91 38.35Q197.15 36.66 199.78 35.46Q202.41 34.26 205.47 34.26L205.47 34.26Q217.04 34.26 217.04 46.80L217.04 46.80ZM258.96 46.80L258.96 63.57L262.21 63.57L262.21 64.87L245.96 64.87L245.96 63.57L249.21 63.57L249.21 45.37Q249.21 40.76 247.85 38.81Q246.48 36.86 243.75 36.86L243.75 36.86Q240.05 36.86 237.84 40.76L237.84 40.76L237.84 63.57L241.09 63.57L241.09 64.87L224.84 64.87L224.84 63.57L228.09 63.57L228.09 36.27L224.84 36.27L224.84 34.97L237.84 34.97L237.84 38.35Q239.07 36.66 241.70 35.46Q244.34 34.26 247.39 34.26L247.39 34.26Q258.96 34.26 258.96 46.80L258.96 46.80ZM295.49 51.87L295.49 51.87L275.86 51.87Q276.51 63.31 284.77 63.31L284.77 63.31Q286.98 63.31 289.80 62.27Q292.63 61.23 293.93 59.35L293.93 59.35L294.84 60.00Q293.41 62.40 289.97 63.96Q286.52 65.52 283.11 65.52Q279.70 65.52 276.97 64.84Q274.24 64.16 271.64 62.53Q269.04 60.91 267.57 57.66Q266.11 54.41 266.11 49.79L266.11 49.79Q266.11 41.93 270.47 38.12Q274.82 34.32 281.03 34.32Q287.24 34.32 291.36 38.48Q295.49 42.64 295.49 51.87ZM275.80 49.86L275.80 50.57L286.39 50.57Q286.39 44.59 285.12 40.11Q283.86 35.62 281.06 35.62Q278.27 35.62 277.03 39.94Q275.80 44.27 275.80 49.86L275.80 49.86ZM316.49 63.57L316.49 64.87L300.24 64.87L300.24 63.57L303.49 63.57L303.49 36.27L300.24 36.27L300.24 34.97L313.24 34.97L313.24 42.71Q313.82 39.52 315.35 37.51Q316.88 35.49 318.73 34.84Q320.58 34.19 322.30 34.19Q324.03 34.19 325.62 34.81Q327.21 35.43 327.99 37.28Q328.77 39.13 328.06 40.98Q327.34 42.84 325.55 43.62Q323.77 44.40 322.27 43.81Q320.78 43.23 320.13 42.22Q319.48 41.21 319.22 40.30L319.22 40.30Q318.57 37.90 317.46 37.90L317.46 37.90Q316.23 37.90 314.73 42.15Q313.24 46.41 313.24 51.16L313.24 51.16L313.24 63.57L316.49 63.57Z" transform="translate(0, 0)"></path></g></svg></g></svg>